# xmcd
#
# Track frame offsets: 
#        156
#        19278
#        24644
#        44332
#        61116
#        88933
#        108952
#        125076
#        130847
#        137741
#        157520
#        181435
#
# Disc length: 2766 seconds
#
# Revision: 3
# Processed by: cddbd v1.5.2PL0 Copyright (c) Steve Scherf et al.
# Submitted via: ExactAudioCopy v1.0b1
#
DISCID=9d0acc0c
DTITLE=Arena - Live [CD1]
DYEAR=2004
DGENRE=Rock
TTITLE0=Witch Hunt
TTITLE1=An Angel Falls
TTITLE2=Painted Man
TTITLE3=This Way Madness Lies
TTITLE4=Spectre At The Feast
TTITLE5=Skin Game
TTITLE6=Salamander
TTITLE7=Bitter Harvest
TTITLE8=City Of Lanterns
TTITLE9=Riding The Tide
TTITLE10=Cutting The Cards
TTITLE11=Ascension
EXTD=YEAR: 2004
EXTT0=
EXTT1=
EXTT2=
EXTT3=
EXTT4=
EXTT5=
EXTT6=
EXTT7=
EXTT8=
EXTT9=
EXTT10=
EXTT11=
PLAYORDER=
